<svg width="25" height="11" viewBox="0 0 25 11" fill="none" xmlns="http://www.w3.org/2000/svg">
<path d="M21.52 7.38L20.185 3H19L20.92 8.401L20.815 8.728C20.642 9.283 20.361 9.501 19.859 9.501C19.769 9.501 19.597 9.49 19.525 9.482V10.373C19.593 10.389 19.875 10.4 19.961 10.4L19.96 10.398C21.066 10.398 21.587 9.968 22.042 8.67L24.033 3H22.878L21.543 7.38H21.52Z" fill="white"/>
<path d="M3.20381 1.854C3.65381 1.892 4.10381 1.626 4.38581 1.287C4.66281 0.941 4.84581 0.472 4.80081 0C4.39981 0.019 3.90881 0.266 3.62781 0.613C3.36781 0.909 3.14681 1.397 3.20381 1.854ZM2.08981 8.046C2.58781 8.027 2.78381 7.719 3.38381 7.719C3.98781 7.719 4.16381 8.046 4.68881 8.039C5.23281 8.028 5.57381 7.545 5.90681 7.049C6.28481 6.486 6.44281 5.941 6.45081 5.911C6.43981 5.9 5.40081 5.496 5.38881 4.278C5.37781 3.258 6.21081 2.774 6.24681 2.744C5.77781 2.036 5.04681 1.96 4.79181 1.941L4.79381 1.942C4.14081 1.903 3.58281 2.318 3.27481 2.318C2.95981 2.318 2.48781 1.96 1.96981 1.971C1.29981 1.983 0.676809 2.368 0.335809 2.98C-0.369191 4.209 0.151809 6.025 0.833809 7.026C1.16781 7.52 1.56481 8.065 2.08981 8.046Z" fill="black"/>
<path d="M13.692 4.624H14.716C14.802 4.167 15.218 3.866 15.789 3.866C16.483 3.866 16.873 4.193 16.873 4.798V5.209L15.456 5.297C14.14 5.377 13.427 5.925 13.427 6.876C13.431 7.835 14.165 8.474 15.219 8.475C15.932 8.475 16.592 8.11 16.891 7.528H16.913V8.419H17.963V4.727C17.963 3.658 17.119 2.965 15.822 2.965C14.618 2.965 13.727 3.664 13.692 4.624ZM16.877 6.41C16.877 7.103 16.295 7.597 15.527 7.597C14.923 7.597 14.537 7.3 14.537 6.851C14.537 6.382 14.908 6.113 15.617 6.071L16.877 5.991V6.41ZM8 1V8.418H9.136V5.883H10.707C12.143 5.883 13.148 4.882 13.148 3.436C13.148 1.99 12.159 1 10.744 1H8ZM11.994 3.44C11.994 4.376 11.432 4.917 10.441 4.917H9.136V1.971H10.445C11.431 1.971 11.994 2.503 11.994 3.44Z" fill="white"/>
</svg>
