<svg xmlns="http://www.w3.org/2000/svg" width="38" height="39" viewBox="0 0 38 39">
  <g id="Frame_35" data-name="Frame 35" transform="translate(-0.48 0.375)">
    <rect id="Frame_35-2" data-name="Frame 35" width="38" height="39" rx="5" transform="translate(0.48 -0.375)" fill="#262941"/>
    <g id="Group_1894" data-name="Group 1894" transform="translate(10.228 8.753)">
      <g id="Group_1896" data-name="Group 1896" transform="translate(0)">
        <path id="Vector" d="M17.421,14.321l-.226-.275c-1.019-1.232-1.635-1.976-1.635-5.464a7.073,7.073,0,0,0-1.283-4.4,6.041,6.041,0,0,0-2.6-1.9.139.139,0,0,1-.038-.031A2.959,2.959,0,0,0,8.9,0,2.958,2.958,0,0,0,6.153,2.248a.145.145,0,0,1-.038.03C3.5,3.353,2.236,5.415,2.236,8.582c0,3.489-.615,4.233-1.635,5.464-.074.089-.15.18-.226.275a1.628,1.628,0,0,0-.215,1.742,1.731,1.731,0,0,0,1.59.976h14.3a1.727,1.727,0,0,0,1.583-.972,1.628,1.628,0,0,0-.213-1.744ZM8.9,20.743a3.707,3.707,0,0,0,3.261-1.951.185.185,0,0,0-.164-.272H5.8a.185.185,0,0,0-.164.272A3.707,3.707,0,0,0,8.9,20.743Z" transform="translate(0)" fill="#39b6ec"/>
      </g>
      <g id="Group" transform="translate(10.941 0.165)">
        <g id="Group-2" data-name="Group">
          <g id="Vector-2" data-name="Vector" fill="#e00">
            <path d="M 3.402109384536743 6.304219245910645 C 1.801879405975342 6.304219245910645 0.4999993741512299 5.002339363098145 0.4999993741512299 3.402109384536743 C 0.4999993741512299 1.801879405975342 1.801879405975342 0.4999993741512299 3.402109384536743 0.4999993741512299 C 5.002339363098145 0.4999993741512299 6.304219245910645 1.801879405975342 6.304219245910645 3.402109384536743 C 6.304219245910645 5.002339363098145 5.002339363098145 6.304219245910645 3.402109384536743 6.304219245910645 Z" stroke="none"/>
            <path d="M 3.402109384536743 0.9999995231628418 C 2.077579498291016 0.9999995231628418 0.9999995231628418 2.077579498291016 0.9999995231628418 3.402109384536743 C 0.9999995231628418 4.726639270782471 2.077579498291016 5.804219245910645 3.402109384536743 5.804219245910645 C 4.726639270782471 5.804219245910645 5.804219245910645 4.726639270782471 5.804219245910645 3.402109384536743 C 5.804219245910645 2.077579498291016 4.726639270782471 0.9999995231628418 3.402109384536743 0.9999995231628418 M 3.402109384536743 -4.76837158203125e-07 C 5.281049251556396 -4.76837158203125e-07 6.804219245910645 1.523179531097412 6.804219245910645 3.402109384536743 C 6.804219245910645 5.281039237976074 5.281049251556396 6.804219245910645 3.402109384536743 6.804219245910645 C 1.523179531097412 6.804219245910645 -4.76837158203125e-07 5.281039237976074 -4.76837158203125e-07 3.402109384536743 C -4.76837158203125e-07 1.523179531097412 1.523179531097412 -4.76837158203125e-07 3.402109384536743 -4.76837158203125e-07 Z" stroke="none" fill="#262941"/>
          </g>
        </g>
      </g>
    </g>
  </g>
</svg>
