<svg width="1024" height="1024" viewBox="0 0 1024 1024" fill="none" xmlns="http://www.w3.org/2000/svg">
<path d="M512 1024C794.77 1024 1024 794.77 1024 512C1024 229.23 794.77 0 512 0C229.23 0 0 229.23 0 512C0 794.77 229.23 1024 512 1024Z" fill="#F3BA2F"/>
<path fill-rule="evenodd" clip-rule="evenodd" d="M644.79 566.448L722.023 643.459L512.074 853.185L302.347 643.459L379.58 566.448L512.074 698.942L644.79 566.448ZM512.074 433.732L590.416 512.074L512.074 590.417L433.954 512.296V512.074L447.713 498.314L454.371 491.656L512.074 433.732ZM247.973 434.841L325.206 512.074L247.973 589.085L170.741 511.852L247.973 434.841ZM776.175 434.841L853.407 512.074L776.175 589.085L698.942 511.852L776.175 434.841ZM512.074 170.741L721.801 380.468L644.568 457.7L512.074 324.984L379.58 457.479L302.347 380.468L512.074 170.741Z" fill="#131415"/>
</svg>
