<svg xmlns="http://www.w3.org/2000/svg" width="27.563" height="31.5" viewBox="0 0 27.563 31.5">
  <path id="Icon_awesome-discord" data-name="Icon awesome-discord" d="M18.286,14.963a1.612,1.612,0,1,1-1.607-1.748A1.678,1.678,0,0,1,18.286,14.963Zm-7.355-1.748a1.755,1.755,0,0,0,0,3.5,1.678,1.678,0,0,0,1.607-1.748A1.668,1.668,0,0,0,10.931,13.214Zm16.632-9.97V31.5c-3.968-3.506-2.7-2.346-7.308-6.631l.835,2.914H3.229A3.237,3.237,0,0,1,0,24.538V3.244A3.237,3.237,0,0,1,3.229,0H24.334A3.237,3.237,0,0,1,27.563,3.244ZM23.074,18.175a21.092,21.092,0,0,0-2.268-9.182A7.788,7.788,0,0,0,16.38,7.339l-.221.252a10.482,10.482,0,0,1,3.922,2A13.383,13.383,0,0,0,8.316,9.135c-.583.268-.929.457-.929.457a10.625,10.625,0,0,1,4.142-2.063l-.158-.189A7.788,7.788,0,0,0,6.946,8.993a21.092,21.092,0,0,0-2.268,9.182,5.71,5.71,0,0,0,4.8,2.394s.583-.709,1.055-1.307A4.9,4.9,0,0,1,7.78,17.4c.232.162.614.372.646.394a11.481,11.481,0,0,0,9.828.551,9.013,9.013,0,0,0,1.811-.929,4.97,4.97,0,0,1-2.851,1.874c.472.6,1.039,1.276,1.039,1.276A5.757,5.757,0,0,0,23.074,18.175Z" fill="#fff"/>
</svg>
