<svg width="24" height="10" viewBox="0 0 24 10" fill="none" xmlns="http://www.w3.org/2000/svg">
<path d="M8.079 4.7C8.079 4.419 8.056 4.138 8.008 3.862H4.121V5.449H6.347C6.255 5.961 5.958 6.414 5.524 6.701V7.732H6.853C7.631 7.016 8.079 5.955 8.079 4.7Z" fill="#4285F4"/>
<path d="M4.121 8.728C5.234 8.728 6.171 8.363 6.853 7.733L5.524 6.702C5.154 6.953 4.678 7.096 4.12 7.096C3.045 7.096 2.133 6.372 1.807 5.395H0.439003V6.457C1.139 7.85 2.564 8.728 4.121 8.728Z" fill="#34A853"/>
<path d="M1.808 5.395C1.636 4.884 1.636 4.329 1.808 3.817V2.756H0.438996C-0.147004 3.921 -0.147004 5.293 0.438996 6.458L1.808 5.395Z" fill="#FBBC04"/>
<path d="M4.121 2.117C4.709 2.108 5.276 2.329 5.702 2.735L6.879 1.559C6.133 0.858 5.145 0.474 4.121 0.485C2.564 0.485 1.139 1.365 0.439003 2.756L1.808 3.818C2.134 2.841 3.046 2.117 4.121 2.117Z" fill="#EA4335"/>
<path d="M1.808 5.395L0.439003 6.457C1.139 7.849 2.564 8.728 4.121 8.728V7.096C3.046 7.096 2.134 6.372 1.808 5.395Z" fill="#2D9248"/>
<path d="M0.438996 2.756C-0.147004 3.921 -0.147004 5.293 0.438996 6.458L1.808 5.396C1.636 4.885 1.636 4.33 1.808 3.818L0.438996 2.756Z" fill="#DBA403"/>
<path d="M4.121 0.485001C2.564 0.485001 1.139 1.365 0.439003 2.756L1.808 3.818C2.134 2.841 3.047 2.117 4.121 2.117V0.485001Z" fill="#CC3A2E"/>
<path d="M10.917 4.497V7.401H9.995V0.227H12.439C13.029 0.215 13.599 0.438 14.022 0.848C14.451 1.234 14.692 1.786 14.683 2.362C14.696 2.942 14.454 3.499 14.022 3.885C13.594 4.293 13.067 4.497 12.439 4.495L10.917 4.497ZM10.917 1.11V3.615H12.462C12.805 3.625 13.135 3.49 13.374 3.243C13.858 2.773 13.869 1.998 13.398 1.514L13.374 1.49C13.139 1.238 12.806 1.1 12.462 1.109L10.917 1.11ZM16.807 2.332C17.489 2.332 18.026 2.514 18.42 2.878C18.814 3.242 19.01 3.742 19.01 4.375V7.401H18.13V6.719H18.09C17.709 7.28 17.2 7.56 16.567 7.56C16.027 7.56 15.574 7.4 15.21 7.079C14.857 6.781 14.656 6.34 14.665 5.877C14.665 5.369 14.857 4.965 15.241 4.665C15.625 4.365 16.137 4.215 16.779 4.215C17.326 4.215 17.778 4.315 18.131 4.515V4.304C18.133 3.988 17.993 3.689 17.75 3.488C17.506 3.269 17.188 3.148 16.86 3.152C16.345 3.152 15.938 3.37 15.638 3.803L14.827 3.292C15.271 2.652 15.932 2.332 16.807 2.332ZM15.614 5.898C15.613 6.136 15.727 6.36 15.919 6.499C16.123 6.659 16.376 6.744 16.635 6.739C17.024 6.738 17.397 6.583 17.672 6.308C17.977 6.02 18.13 5.684 18.13 5.297C17.843 5.068 17.442 4.953 16.927 4.953C16.553 4.953 16.24 5.043 15.99 5.224C15.74 5.408 15.614 5.631 15.614 5.898ZM24.071 2.492L20.994 9.565H20.043L21.185 7.09L19.161 2.492H20.162L21.624 6.018H21.644L23.067 2.492H24.071Z" fill="white"/>
<path d="M10.917 5.395H9.995V7.4H10.917V5.395ZM19.011 5.395H18.128C18.104 5.741 17.952 6.045 17.673 6.308C17.398 6.583 17.025 6.738 16.636 6.739C16.628 6.739 16.621 6.739 16.614 6.739C16.363 6.739 16.119 6.654 15.92 6.499C15.727 6.36 15.614 6.136 15.615 5.898C15.615 5.709 15.678 5.542 15.804 5.395H14.731C14.687 5.544 14.664 5.704 14.664 5.877C14.655 6.34 14.856 6.781 15.209 7.079C15.573 7.4 16.026 7.56 16.566 7.56C17.199 7.56 17.708 7.28 18.089 6.719H18.129V7.401H19.01L19.011 5.395ZM22.808 5.395H21.896L21.645 6.018H21.625L21.367 5.395H20.439L21.185 7.09L20.043 9.565H20.994L22.808 5.395Z" fill="white"/>
</svg>
