<svg xmlns="http://www.w3.org/2000/svg" width="28.334" height="28.334" viewBox="0 0 28.334 28.334">
  <path id="Icon_awesome-linkedin" data-name="Icon awesome-linkedin" d="M26.31,2.25H2.018A2.033,2.033,0,0,0,0,4.293V28.541a2.033,2.033,0,0,0,2.018,2.043H26.31a2.038,2.038,0,0,0,2.024-2.043V4.293A2.038,2.038,0,0,0,26.31,2.25ZM8.564,26.536h-4.2V13.014H8.57V26.536Zm-2.1-15.369A2.435,2.435,0,1,1,8.9,8.733a2.436,2.436,0,0,1-2.435,2.435ZM24.305,26.536h-4.2V19.959c0-1.569-.032-3.586-2.182-3.586-2.188,0-2.524,1.708-2.524,3.472v6.691H11.2V13.014H15.23v1.847h.057a4.423,4.423,0,0,1,3.978-2.182c4.25,0,5.041,2.8,5.041,6.445Z" transform="translate(0 -2.25)" fill="#fff"/>
</svg>
