<svg xmlns="http://www.w3.org/2000/svg" width="5434.035" height="2025.359" viewBox="0 0 5434.035 2025.359">
  <g id="uplift_logo_1_" data-name="uplift_logo (1)" transform="translate(-50.115 -61.371)">
    <path id="Path_46077" data-name="Path 46077" d="M2938,1486.4q-98.3,92.835-256.68,92.84t-256.68-92.84q-98.31-92.85-98.31-248.49V607.124h95.58V1237.91q0,114.69,68.26,181.59,68.28,66.9,191.15,66.9t191.15-66.9q68.265-66.9,68.26-181.59V607.124h95.58V1237.91Q3036.31,1393.55,2938,1486.4Z" fill="#fff"/>
    <path id="Path_46078" data-name="Path 46078" d="M3593.58,863.807q146.085,0,248.49,103.765,103.755,103.767,103.76,253.948t-103.76,253.96q-102.405,103.755-248.49,103.76-181.59,0-275.8-150.19v406.87h-90.11V880.191h90.11v133.8Q3411.98,863.809,3593.58,863.807ZM3395.6,1414.04q77.835,77.82,191.15,77.82t191.15-77.82q77.82-79.2,77.82-192.52t-77.82-191.14q-77.835-79.192-191.15-79.192T3395.6,1030.38q-77.82,77.82-77.82,191.14T3395.6,1414.04Z" fill="#fff"/>
    <path id="Path_46079" data-name="Path 46079" d="M4095.67,1562.86v-996.7h90.11v996.7Z" fill="#fff"/>
    <path id="Path_46080" data-name="Path 46080" d="M4468.48,716.351q-19.11,19.114-46.42,19.114t-46.42-19.114q-19.125-19.115-19.12-46.422t19.12-46.421q19.11-19.114,46.42-19.115t46.42,19.115q19.11,19.114,19.11,46.421T4468.48,716.351ZM4377,1562.86V880.191h90.11V1562.86Z" fill="#fff"/>
    <path id="Path_46081" data-name="Path 46081" d="M4999.67,678.121q-99.675-8.191-148.82,34.134-47.79,42.325-47.79,140.629v27.307h196.61v87.381H4803.06V1562.86h-90.11V967.572H4596.89V880.191h116.06V852.884q0-133.8,73.73-202.069,75.09-69.633,212.99-60.075Z" fill="#fff"/>
    <path id="Path_46082" data-name="Path 46082" d="M5484.15,967.572H5287.54v413.7q0,55.98,21.84,80.55,21.855,23.22,65.54,24.58,43.695,0,109.23-2.73v79.19q-143.37,21.84-215.73-20.48-71-42.33-70.99-161.11v-413.7H5054.07V880.191h143.36V716.351l90.11-27.307V880.191h196.61Z" fill="#fff"/>
    <path id="Path_46083" data-name="Path 46083" d="M608.656,367.41v843.35c0,153.32-123.654,277.7-276.662,279.13.921,0,1.739.11,2.557.11,154.235,0,279.321-125.1,279.321-279.35V367.41Z" fill="#f79c74"/>
    <path id="Path_46084" data-name="Path 46084" d="M55.331,1210.76V367.41H50.115v843.35c0,154.24,125.086,279.34,279.321,279.34.92,0,1.739-.1,2.557-.1C178.985,1488.46,55.331,1364.08,55.331,1210.76Z" fill="#fff"/>
    <path id="Path_46085" data-name="Path 46085" d="M608.655,1210.76V367.41H55.332v843.35c0,153.32,123.654,277.7,276.661,279.13C485,1488.46,608.655,1364.08,608.655,1210.76Z" fill="#f79c74"/>
    <path id="Path_46086" data-name="Path 46086" d="M1196.65,214.289V1224.77c0,315.55-254.979,571.57-570.1,573.31.613,0,1.329.1,1.943.1,316.652,0,573.374-256.73,573.374-573.41V214.289Z" fill="#f58467"/>
    <path id="Path_46087" data-name="Path 46087" d="M643.225,214.289H637.6V1210.96c0,169.59-136.95,307.16-306.322,308.19-.716,0-1.329.1-2.045.1-102.073,0-192.487-49.81-248.535-126.22-3.375-4.6-6.648-9.21-9.716-13.91,67.4,241.6,289.036,418.96,552.1,418.96,1.125,0,2.148-.1,3.273-.1,315.118-1.74,570.1-257.66,570.1-573.31V214.289Z" fill="#f58467"/>
    <path id="Path_46088" data-name="Path 46088" d="M1790.78,214.288V61.371h-5.21V214.288h.1V1218.84h-.1c0,478.59-387.33,866.56-865.582,867.79,1.023,0,1.944.1,2.966.1,479.276,0,867.826-388.58,867.826-867.89h.1V214.288Z" fill="#d15b50"/>
    <path id="Path_46089" data-name="Path 46089" d="M1785.57,214.288V61.371H1224.88V214.288h-.1V407.1h.1V1225.38c0,331.61-268.07,600.62-599.246,602.16-1.023,0-1.943.1-2.966.1-204.76,0-385.076-102.69-493.8-258.99-4.807-6.95-9.716-13.81-14.217-20.97,129.689,316.17,440.306,538.95,803.188,538.95.716,0,1.534-.1,2.25-.1,478.248-1.23,865.578-389.2,865.578-867.8h.1V214.288Z" fill="#d15b50"/>
  </g>
</svg>
