<svg width="20" height="9" viewBox="0 0 20 9" fill="none" xmlns="http://www.w3.org/2000/svg">
<path d="M2.79434 8.44586C3.73274 8.44586 4.49347 7.68514 4.49347 6.74673C4.49347 5.80833 3.73274 5.04761 2.79434 5.04761C1.85594 5.04761 1.09521 5.80833 1.09521 6.74673C1.09521 7.68514 1.85594 8.44586 2.79434 8.44586Z" fill="#358D93"/>
<path d="M17.3227 8.44094C18.2598 8.44094 19.0194 7.68129 19.0194 6.74421C19.0194 5.80714 18.2598 5.04749 17.3227 5.04749C16.3856 5.04749 15.626 5.80714 15.626 6.74421C15.626 7.68129 16.3856 8.44094 17.3227 8.44094Z" fill="#358D93"/>
<path fill-rule="evenodd" clip-rule="evenodd" d="M2.46457 6.38118C2.4578 6.36151 2.45193 6.34223 2.44693 6.32335L2.97761 6.30164C3.07434 6.66729 3.54281 7.21459 4.63179 7.65391C5.55711 8.02717 6.9432 8.32782 8.96851 8.36859L8.96883 8.36634C9.15162 8.37054 9.32998 8.37278 9.50402 8.3732C9.67801 8.37278 9.85637 8.37054 10.0392 8.36634L10.0395 8.36859C12.0649 8.32782 13.4509 8.02717 14.3762 7.65391C15.4652 7.21459 15.9337 6.66729 16.0304 6.30164L16.5611 6.32335C16.5561 6.34223 16.5502 6.36151 16.5434 6.38118L17.0278 6.401C16.9136 6.83276 16.3695 7.46563 15.1062 7.97524C13.9229 8.45262 12.1237 8.81552 9.50402 8.8095C6.88445 8.81552 5.0852 8.45262 3.90186 7.97524C2.63861 7.46563 2.09445 6.83276 1.98022 6.401L2.46457 6.38118ZM3.21099 7.24723C3.47907 7.44642 3.83153 7.64627 4.28387 7.82876C5.27615 8.22905 6.76185 8.55105 8.93068 8.59472L8.93106 8.59233C9.12676 8.59682 9.31771 8.59923 9.50402 8.59967C9.69039 8.59923 9.88135 8.59682 10.077 8.59233L10.0774 8.59472C12.2463 8.55105 13.732 8.22905 14.7242 7.82876C15.1775 7.64587 15.5306 7.44554 15.7988 7.24593C15.5329 7.43629 15.1904 7.62602 14.7582 7.80037C13.6475 8.24844 11.9595 8.58868 9.50402 8.58303C7.04846 8.58868 5.36045 8.24844 4.24978 7.80037C3.81856 7.62642 3.47665 7.43715 3.21099 7.24723Z" fill="#AEE98D"/>
<path d="M16.9518 0.395203C16.0133 0.395203 15.2526 1.15593 15.2526 2.09433C15.2526 3.03273 16.0133 3.79346 16.9518 3.79346C17.8902 3.79346 18.6509 3.03273 18.6509 2.09433C18.6509 1.15593 17.8902 0.395203 16.9518 0.395203Z" fill="#358D93"/>
<path d="M2.42339 0.400126C1.48632 0.400126 0.726665 1.15978 0.726665 2.09685C0.726665 3.03393 1.48632 3.79358 2.42339 3.79358C3.36047 3.79358 4.12012 3.03393 4.12012 2.09685C4.12012 1.15978 3.36047 0.400126 2.42339 0.400126Z" fill="#358D93"/>
<path fill-rule="evenodd" clip-rule="evenodd" d="M17.2815 2.46001C17.2883 2.47967 17.2942 2.49896 17.2992 2.51784L16.7685 2.53955C16.6717 2.1739 16.2033 1.6266 15.1143 1.18728C14.189 0.814012 12.8029 0.51337 10.7776 0.4726L10.7773 0.474846C10.5945 0.470649 10.4161 0.468404 10.2421 0.467984C10.0681 0.468404 9.88972 0.470649 9.70693 0.474846L9.70655 0.4726C7.68124 0.51337 6.29521 0.814012 5.36989 1.18728C4.28088 1.6266 3.81243 2.1739 3.7157 2.53955L3.18499 2.51784C3.19001 2.49896 3.19588 2.47967 3.20265 2.46001L2.71825 2.44019C2.83248 2.00843 3.37664 1.37556 4.63985 0.865945C5.82324 0.388564 7.62244 0.025666 10.2421 0.0316882C12.8616 0.025666 14.6609 0.388564 15.8442 0.865945C17.1075 1.37556 17.6516 2.00843 17.7659 2.44019L17.2815 2.46001ZM16.5351 1.59396C16.267 1.39477 15.9146 1.19491 15.4622 1.01243C14.4699 0.612136 12.9842 0.290134 10.8154 0.246468L10.815 0.24886C10.6193 0.24437 10.4284 0.241957 10.2421 0.241516C10.0557 0.241957 9.86475 0.24437 9.66905 0.24886L9.66867 0.246468C7.49983 0.290134 6.01414 0.612136 5.02192 1.01243C4.56857 1.19531 4.21552 1.39564 3.94726 1.59526C4.21318 1.4049 4.55565 1.21516 4.98788 1.04082C6.09855 0.592748 7.78656 0.252511 10.2421 0.258156C12.6976 0.252511 14.3856 0.592748 15.4963 1.04082C15.9275 1.21476 16.2694 1.40403 16.5351 1.59396Z" fill="#AEE98D"/>
</svg>
